<?xml version="1.0" encoding="utf-8"?>
<!-- Generator: Adobe Illustrator 22.0.1, SVG Export Plug-In . SVG Version: 6.00 Build 0)  -->
<svg version="1.1" id="Calque_1" xmlns="http://www.w3.org/2000/svg" xmlns:xlink="http://www.w3.org/1999/xlink" x="0px" y="0px"
	 viewBox="0 0 78.3 70" style="enable-background:new 0 0 78.3 70;" xml:space="preserve">
<style type="text/css">
	.st0{fill:none;stroke:#000000;stroke-width:0.5;stroke-linejoin:round;stroke-miterlimit:10;}
	.st1{fill:none;stroke:#000000;stroke-width:0.5;stroke-linejoin:round;}
	.st2{fill:none;stroke:#000000;stroke-width:0.5;stroke-linejoin:round;stroke-dasharray:1.3826,1.3826;}
	.st3{fill:none;stroke:#000000;stroke-width:0.5;stroke-linejoin:round;stroke-dasharray:1.4341,1.4341;}
	.st4{fill:none;stroke:#000000;stroke-width:0.5;stroke-linejoin:round;stroke-dasharray:1.5412,1.5412;}
	.st5{fill:none;stroke:#000000;stroke-width:0.5;stroke-linejoin:round;stroke-dasharray:0.6738,0.6738;}
	.st6{fill:none;stroke:#000000;stroke-width:0.5;stroke-linejoin:round;stroke-dasharray:1.3733,1.3733;}
	.st7{fill:none;stroke:#000000;stroke-width:0.5;stroke-linejoin:round;stroke-dasharray:1.2121,1.2121;}
	.st8{fill:none;stroke:#000000;stroke-width:0.5;stroke-linejoin:round;stroke-dasharray:1.3316,1.3316;}
	.st9{fill:none;stroke:#000000;stroke-width:0.5;stroke-linejoin:round;stroke-dasharray:0.7106,0.7106;}
	.st10{fill:none;stroke:#000000;stroke-width:0.5;stroke-linejoin:round;stroke-dasharray:0.9528;}
	.st11{fill:none;stroke:#000000;stroke-width:0.5;stroke-linejoin:round;stroke-dasharray:0.9763;}
	.st12{fill:none;stroke:#000000;stroke-width:0.5;stroke-linejoin:round;stroke-dasharray:0.977;}
	.st13{fill:none;stroke:#000000;stroke-width:0.5;stroke-linejoin:round;stroke-dasharray:0.9543;}
	.st14{fill:none;stroke:#000000;stroke-width:0.5;stroke-linejoin:round;stroke-dasharray:0.9119;}
	.st15{fill:none;stroke:#000000;stroke-width:0.5;stroke-linejoin:round;stroke-dasharray:0.8625;}
	.st16{fill:none;stroke:#000000;stroke-width:0.5;stroke-linejoin:round;stroke-dasharray:0.8165;}
	.st17{fill:none;stroke:#000000;stroke-width:0.5;stroke-linejoin:round;stroke-dasharray:0.8161;}
	.st18{fill:none;stroke:#000000;stroke-width:0.5;stroke-linejoin:round;stroke-dasharray:0.861;}
	.st19{fill:none;stroke:#000000;stroke-width:0.5;stroke-linejoin:round;stroke-dasharray:0.9105;}
	.st20{fill:none;stroke:#000000;stroke-width:0.5;stroke-linejoin:round;stroke-dasharray:0.743,0.743;}
	.st21{fill:none;stroke:#000000;stroke-width:0.5;stroke-linejoin:round;stroke-dasharray:1.3084,1.3084;}
	.st22{fill:none;stroke:#000000;stroke-width:0.5;stroke-linejoin:round;stroke-dasharray:0.7045,0.7045;}
	.st23{fill:none;stroke:#000000;stroke-width:0.5;stroke-linejoin:round;stroke-dasharray:1.1463,1.1463;}
	.st24{fill:none;stroke:#000000;stroke-width:0.5;stroke-linejoin:round;stroke-dasharray:1.3126,1.3126;}
	.st25{fill:none;stroke:#000000;stroke-width:0.5;stroke-linejoin:round;stroke-dasharray:0.673,0.673;}
	.st26{fill:none;stroke:#000000;stroke-width:0.5;stroke-linejoin:round;stroke-dasharray:1.2835,1.2835;}
	.st27{fill:none;stroke:#000000;stroke-width:0.5;stroke-linejoin:round;stroke-dasharray:1.4119,1.4119;}
	.st28{fill:none;stroke:#000000;stroke-width:0.5;stroke-linejoin:round;stroke-dasharray:1.1796,1.1796;}
	.st29{fill:none;stroke:#000000;stroke-width:0.5;stroke-linejoin:round;stroke-dasharray:1.2365,1.2365;}
	.st30{fill:none;stroke:#000000;stroke-width:0.5;stroke-linejoin:round;stroke-dasharray:1.3594,1.3594;}
	.st31{fill:none;stroke:#000000;stroke-width:0.5;stroke-linejoin:round;stroke-dasharray:1.3538,1.3538;}
	.st32{fill:none;stroke:#000000;stroke-width:0.5;stroke-linejoin:round;stroke-dasharray:0.9427;}
</style>
<g>
	<polygon class="st0" points="41.8,35.3 41.8,35.2 42.1,31.5 42.1,31.6 	"/>
	<line class="st0" x1="37.1" y1="35.5" x2="38" y2="35.4"/>
	<line class="st0" x1="41.8" y1="35.4" x2="45.2" y2="45.4"/>
	<line class="st0" x1="32.3" y1="30.3" x2="32.4" y2="30.2"/>
	<line class="st0" x1="7.1" y1="19.3" x2="21.4" y2="26.3"/>
	<line class="st0" x1="32" y1="30.5" x2="32.1" y2="30.5"/>
	<line class="st0" x1="27.5" y1="22.7" x2="27.2" y2="21.8"/>
	<polyline class="st0" points="33.6,32.8 33.6,32.5 33.5,28.7 33.6,27.9 	"/>
	<line class="st0" x1="53.2" y1="34.8" x2="54.4" y2="34.5"/>
	<line class="st0" x1="48.3" y1="44.7" x2="45.2" y2="45.4"/>
	<line class="st0" x1="35.3" y1="35.1" x2="36.2" y2="35.4"/>
	<line class="st0" x1="54.3" y1="10.1" x2="46.7" y2="21.1"/>
	<line class="st0" x1="32.5" y1="30.1" x2="32.5" y2="30"/>
	<polyline class="st0" points="32.5,29.9 32.5,30 32.4,25.9 32.4,26 	"/>
	<line class="st0" x1="32.2" y1="30.4" x2="32.3" y2="30.4"/>
	<line class="st0" x1="32.3" y1="30.4" x2="32.3" y2="30.3"/>
	<line class="st0" x1="41.8" y1="35.2" x2="41.8" y2="35.3"/>
	<line class="st0" x1="38" y1="35.4" x2="38.9" y2="35.1"/>
	<line class="st0" x1="32.4" y1="30.2" x2="32.5" y2="30.1"/>
	<line class="st0" x1="32.5" y1="30.1" x2="32.5" y2="30.1"/>
	<line class="st0" x1="41.8" y1="35.3" x2="41.8" y2="35.4"/>
	<polyline class="st0" points="31.9,30.6 20.8,33 19.4,26.7 21.4,26.3 	"/>
	<line class="st0" x1="31.9" y1="30.6" x2="32" y2="30.5"/>
	<line class="st0" x1="17.1" y1="64.2" x2="32.7" y2="41.4"/>
	<line class="st0" x1="32.7" y1="41.4" x2="34.6" y2="47.9"/>
	<line class="st0" x1="26.6" y1="40.8" x2="22.7" y2="41.7"/>
	<line class="st0" x1="34.6" y1="47.9" x2="37.7" y2="47.2"/>
	<line class="st0" x1="14.2" y1="62.4" x2="17.1" y2="64.2"/>
	<line class="st0" x1="40.8" y1="28.6" x2="51.1" y2="26.4"/>
	<line class="st0" x1="32.5" y1="29.9" x2="32.5" y2="29.8"/>
	<line class="st0" x1="71.1" y1="50.6" x2="48.3" y2="39.4"/>
	<line class="st0" x1="38.7" y1="26.1" x2="36.6" y2="19.9"/>
	<line class="st0" x1="40.2" y1="34" x2="40.5" y2="33.3"/>
	<line class="st0" x1="32.1" y1="30.5" x2="32.2" y2="30.4"/>
	<line class="st0" x1="39.4" y1="15.3" x2="36.6" y2="15.8"/>
	<line class="st0" x1="41.3" y1="20.4" x2="39.4" y2="15.3"/>
	<line class="st0" x1="52.6" y1="4.9" x2="41.3" y2="20.4"/>
	<line class="st0" x1="52.6" y1="4.9" x2="55" y2="5.9"/>
	<g>
		<g>
			<line class="st1" x1="55" y1="5.9" x2="54.7" y2="6.4"/>
			<line class="st2" x1="53.9" y1="7.5" x2="44.7" y2="20.5"/>
			<line class="st1" x1="44.3" y1="21.1" x2="44" y2="21.6"/>
		</g>
	</g>
	<line class="st0" x1="50.8" y1="20.2" x2="51.7" y2="22.5"/>
	<g>
		<g>
			<line class="st1" x1="40.6" y1="24.8" x2="41.3" y2="24.7"/>
			<line class="st3" x1="42.7" y1="24.4" x2="50.4" y2="22.8"/>
			<line class="st1" x1="51.1" y1="22.6" x2="51.7" y2="22.5"/>
		</g>
	</g>
	<line class="st0" x1="40.5" y1="24.9" x2="40.6" y2="24.8"/>
	<line class="st0" x1="40" y1="24.8" x2="40.1" y2="24.8"/>
	<line class="st0" x1="39.9" y1="24.7" x2="40" y2="24.8"/>
	<line class="st0" x1="39.5" y1="24.3" x2="39.6" y2="24.4"/>
	<g>
		<g>
			<line class="st1" x1="39.5" y1="24.3" x2="39.3" y2="23.7"/>
			<line class="st4" x1="38.8" y1="22.3" x2="37" y2="17.2"/>
			<line class="st1" x1="36.8" y1="16.4" x2="36.6" y2="15.8"/>
		</g>
	</g>
	<line class="st0" x1="36.6" y1="19.9" x2="36.6" y2="15.8"/>
	<line class="st0" x1="54.3" y1="10.1" x2="55" y2="5.9"/>
	<line class="st0" x1="51.1" y1="26.4" x2="51.7" y2="22.5"/>
	<line class="st0" x1="36.2" y1="35.4" x2="37.1" y2="35.5"/>
	<line class="st0" x1="35.1" y1="34.9" x2="35.3" y2="35.1"/>
	<polyline class="st0" points="40.5,33.3 40.6,32.5 40.8,28.6 40.7,28 	"/>
	<line class="st0" x1="39.6" y1="34.6" x2="40.2" y2="34"/>
	<line class="st0" x1="38.9" y1="35.1" x2="39.6" y2="34.6"/>
	<g>
		<g>
			<line class="st1" x1="48.9" y1="41.3" x2="48.3" y2="41.4"/>
			<line class="st5" x1="47.6" y1="41.6" x2="46.7" y2="41.8"/>
			<line class="st1" x1="46.3" y1="41.9" x2="45.7" y2="42"/>
		</g>
	</g>
	<g>
		<g>
			<line class="st1" x1="42.1" y1="31.7" x2="42.3" y2="32.3"/>
			<line class="st6" x1="42.8" y1="33.6" x2="45.3" y2="40.7"/>
			<line class="st1" x1="45.5" y1="41.4" x2="45.7" y2="42"/>
		</g>
	</g>
	<line class="st0" x1="42.1" y1="31.6" x2="42.1" y2="31.7"/>
	<line class="st0" x1="42.1" y1="31.5" x2="42.1" y2="31.6"/>
	<line class="st0" x1="42.1" y1="31.4" x2="42.1" y2="31.5"/>
	<line class="st0" x1="42.1" y1="31.3" x2="42.1" y2="31.4"/>
	<line class="st0" x1="42.2" y1="31.2" x2="42.1" y2="31.3"/>
	<line class="st0" x1="42.2" y1="31.1" x2="42.2" y2="31.2"/>
	<line class="st0" x1="42.3" y1="31" x2="42.2" y2="31.1"/>
	<line class="st0" x1="42.3" y1="31" x2="42.3" y2="31"/>
	<line class="st0" x1="42.4" y1="30.9" x2="42.3" y2="31"/>
	<line class="st0" x1="42.5" y1="30.8" x2="42.4" y2="30.9"/>
	<line class="st0" x1="42.6" y1="30.8" x2="42.5" y2="30.8"/>
	<line class="st0" x1="42.7" y1="30.8" x2="42.6" y2="30.8"/>
	<line class="st0" x1="42.7" y1="30.8" x2="54.2" y2="28.3"/>
	<line class="st0" x1="55.3" y1="30.8" x2="54.2" y2="28.3"/>
	<g>
		<g>
			<line class="st1" x1="48.1" y1="32.4" x2="48.7" y2="32.2"/>
			<line class="st7" x1="49.9" y1="32" x2="54" y2="31"/>
			<line class="st1" x1="54.6" y1="30.9" x2="55.3" y2="30.8"/>
		</g>
	</g>
	<line class="st0" x1="74.2" y1="44.7" x2="72.9" y2="47.4"/>
	<g>
		<g>
			<line class="st1" x1="72.9" y1="47.4" x2="72.3" y2="47.1"/>
			<line class="st8" x1="71.1" y1="46.5" x2="47.7" y2="35.3"/>
			<line class="st1" x1="47.1" y1="35" x2="46.5" y2="34.7"/>
		</g>
	</g>
	<g>
		<g>
			<line class="st1" x1="45.2" y1="45.4" x2="45.3" y2="44.8"/>
			<line class="st9" x1="45.4" y1="44.1" x2="45.6" y2="43"/>
			<line class="st1" x1="45.6" y1="42.7" x2="45.7" y2="42"/>
		</g>
	</g>
	<line class="st0" x1="48.3" y1="44.7" x2="48.9" y2="41.3"/>
	<line class="st0" x1="41.8" y1="35.2" x2="42.1" y2="31.5"/>
	<line class="st0" x1="54.4" y1="34.5" x2="55.3" y2="30.8"/>
	<line class="st0" x1="71.1" y1="50.6" x2="72.9" y2="47.4"/>
	<g>
		<line class="st10" x1="38.1" y1="31.7" x2="39" y2="31.4"/>
	</g>
	<g>
		<line class="st11" x1="37.1" y1="31.8" x2="38.1" y2="31.7"/>
	</g>
	<g>
		<line class="st12" x1="36.2" y1="31.7" x2="37.1" y2="31.8"/>
	</g>
	<g>
		<line class="st13" x1="35.3" y1="31.4" x2="36.2" y2="31.7"/>
	</g>
	<g>
		<line class="st14" x1="34.5" y1="30.9" x2="35.3" y2="31.4"/>
	</g>
	<g>
		<line class="st15" x1="33.9" y1="30.2" x2="34.5" y2="30.9"/>
	</g>
	<g>
		<line class="st16" x1="33.6" y1="29.5" x2="33.9" y2="30.2"/>
	</g>
	<line class="st0" x1="33.5" y1="28.7" x2="33.6" y2="29.5"/>
	<line class="st0" x1="34" y1="27.2" x2="33.6" y2="27.9"/>
	<line class="st0" x1="34.6" y1="26.6" x2="34" y2="27.2"/>
	<line class="st0" x1="35.3" y1="26.1" x2="34.6" y2="26.6"/>
	<line class="st0" x1="36.2" y1="25.9" x2="35.3" y2="26.1"/>
	<line class="st0" x1="37.1" y1="25.8" x2="36.2" y2="25.9"/>
	<line class="st0" x1="38.1" y1="25.9" x2="37.1" y2="25.8"/>
	<line class="st0" x1="40.7" y1="29.5" x2="40.8" y2="28.7"/>
	<g>
		<line class="st17" x1="40.4" y1="30.2" x2="40.7" y2="29.5"/>
	</g>
	<g>
		<line class="st18" x1="39.8" y1="30.9" x2="40.4" y2="30.2"/>
	</g>
	<g>
		<line class="st19" x1="39" y1="31.4" x2="39.8" y2="30.9"/>
	</g>
	<g>
		<g>
			<line class="st1" x1="12.9" y1="59.7" x2="13.5" y2="60"/>
			<line class="st20" x1="14.1" y1="60.4" x2="15.1" y2="60.9"/>
			<line class="st1" x1="15.4" y1="61.1" x2="15.9" y2="61.5"/>
		</g>
	</g>
	<g>
		<g>
			<line class="st1" x1="29.7" y1="36.4" x2="29.1" y2="36.6"/>
			<line class="st21" x1="27.8" y1="36.9" x2="23.3" y2="37.8"/>
			<line class="st1" x1="22.7" y1="38" x2="22" y2="38.1"/>
		</g>
	</g>
	<line class="st0" x1="33.6" y1="32.8" x2="33.5" y2="32.8"/>
	<line class="st0" x1="33.8" y1="32.8" x2="33.7" y2="32.8"/>
	<line class="st0" x1="34" y1="32.8" x2="33.8" y2="32.8"/>
	<line class="st0" x1="34.2" y1="32.9" x2="34.1" y2="32.8"/>
	<line class="st0" x1="34.3" y1="32.9" x2="34.2" y2="32.9"/>
	<line class="st0" x1="34.4" y1="33" x2="34.3" y2="32.9"/>
	<line class="st0" x1="34.5" y1="33.1" x2="34.4" y2="33"/>
	<line class="st0" x1="34.5" y1="33.2" x2="34.5" y2="33.1"/>
	<line class="st0" x1="34.6" y1="33.3" x2="34.6" y2="33.2"/>
	<g>
		<g>
			<line class="st1" x1="34.5" y1="44.6" x2="35.1" y2="44.5"/>
			<line class="st22" x1="35.8" y1="44.3" x2="36.8" y2="44.1"/>
			<line class="st1" x1="37.2" y1="44" x2="37.8" y2="43.8"/>
		</g>
	</g>
	<g>
		<g>
			<line class="st1" x1="32.6" y1="37.8" x2="32.7" y2="38.5"/>
			<line class="st23" x1="33" y1="39.6" x2="34.1" y2="43.4"/>
			<line class="st1" x1="34.3" y1="44" x2="34.5" y2="44.6"/>
		</g>
	</g>
	<g>
		<g>
			<line class="st1" x1="15.9" y1="61.5" x2="16.3" y2="60.9"/>
			<line class="st24" x1="17.1" y1="59.9" x2="31.8" y2="38.9"/>
			<line class="st1" x1="32.2" y1="38.4" x2="32.6" y2="37.8"/>
		</g>
	</g>
	<line class="st0" x1="14.2" y1="62.4" x2="12.9" y2="59.7"/>
	<g>
		<g>
			<line class="st1" x1="17.1" y1="64.2" x2="16.8" y2="63.6"/>
			<line class="st1" x1="16.2" y1="62.1" x2="15.9" y2="61.5"/>
		</g>
	</g>
	<line class="st0" x1="37.7" y1="47.2" x2="37.8" y2="43.8"/>
	<g>
		<g>
			<line class="st1" x1="34.6" y1="47.9" x2="34.6" y2="47.3"/>
			<line class="st25" x1="34.5" y1="46.6" x2="34.5" y2="45.6"/>
			<line class="st1" x1="34.5" y1="45.3" x2="34.5" y2="44.6"/>
		</g>
	</g>
	<line class="st0" x1="32.7" y1="41.4" x2="32.6" y2="37.8"/>
	<g>
		<g>
			<line class="st1" x1="5.8" y1="15.2" x2="6.4" y2="15.5"/>
			<line class="st26" x1="7.6" y1="16.1" x2="25.5" y2="24.7"/>
			<line class="st1" x1="26.1" y1="24.9" x2="26.7" y2="25.2"/>
		</g>
	</g>
	<line class="st0" x1="7.6" y1="13.3" x2="5.8" y2="15.2"/>
	<g>
		<g>
			<line class="st1" x1="28.3" y1="23.1" x2="28.2" y2="22.5"/>
			<line class="st27" x1="27.8" y1="21.1" x2="27.2" y2="19.1"/>
			<line class="st1" x1="27" y1="18.4" x2="26.8" y2="17.8"/>
		</g>
	</g>
	<line class="st0" x1="26.8" y1="17.8" x2="29.7" y2="17.2"/>
	<line class="st0" x1="32.3" y1="25.8" x2="29.7" y2="17.2"/>
	<line class="st0" x1="32.4" y1="25.9" x2="32.3" y2="25.8"/>
	<line class="st0" x1="32.3" y1="26.1" x2="32.4" y2="26"/>
	<line class="st0" x1="32.3" y1="26.2" x2="32.3" y2="26.1"/>
	<line class="st0" x1="32.3" y1="26.3" x2="32.3" y2="26.2"/>
	<line class="st0" x1="32.2" y1="26.4" x2="32.3" y2="26.3"/>
	<line class="st0" x1="32.1" y1="26.5" x2="32.2" y2="26.4"/>
	<line class="st0" x1="32.1" y1="26.5" x2="32.1" y2="26.5"/>
	<line class="st0" x1="31.7" y1="26.7" x2="31.8" y2="26.7"/>
	<g>
		<g>
			<line class="st1" x1="31.7" y1="26.7" x2="31" y2="26.9"/>
			<line class="st28" x1="29.9" y1="27.1" x2="21.2" y2="28.9"/>
			<line class="st1" x1="20.6" y1="29" x2="20" y2="29.2"/>
		</g>
	</g>
	<line class="st0" x1="7.1" y1="19.3" x2="5.8" y2="15.2"/>
	<line class="st0" x1="27.2" y1="21.8" x2="26.8" y2="17.8"/>
	<g>
		<g>
			<line class="st1" x1="44" y1="21.6" x2="44.6" y2="21.5"/>
			<line class="st1" x1="46.1" y1="21.2" x2="46.7" y2="21.1"/>
		</g>
	</g>
	<line class="st0" x1="46.7" y1="21.1" x2="50.8" y2="20.2"/>
	<line class="st0" x1="74.2" y1="44.7" x2="53.2" y2="34.8"/>
	<line class="st0" x1="53.2" y1="34.8" x2="48.1" y2="32.4"/>
	<g>
		<g>
			<line class="st1" x1="46.5" y1="34.7" x2="46.8" y2="35.3"/>
			<line class="st29" x1="47.2" y1="36.5" x2="47.8" y2="38.2"/>
			<line class="st1" x1="48" y1="38.8" x2="48.3" y2="39.4"/>
		</g>
	</g>
	<line class="st0" x1="48.3" y1="39.4" x2="48.9" y2="41.3"/>
	<line class="st0" x1="39" y1="26.2" x2="38.7" y2="26.1"/>
	<line class="st0" x1="38.7" y1="26.1" x2="38.1" y2="25.9"/>
	<line class="st0" x1="39.7" y1="26.6" x2="39.7" y2="26.6"/>
	<line class="st0" x1="40.3" y1="27.2" x2="40.3" y2="27.2"/>
	<line class="st0" x1="40.7" y1="28" x2="40.5" y2="27.6"/>
	<line class="st0" x1="40.8" y1="28.7" x2="40.8" y2="28.6"/>
	<line class="st0" x1="12.9" y1="59.7" x2="26.6" y2="40.8"/>
	<g>
		<g>
			<line class="st1" x1="26.6" y1="40.8" x2="26.9" y2="40.3"/>
			<line class="st30" x1="27.7" y1="39.2" x2="28.9" y2="37.5"/>
			<line class="st1" x1="29.3" y1="37" x2="29.7" y2="36.4"/>
		</g>
	</g>
	<line class="st0" x1="33.6" y1="32.8" x2="33.6" y2="32.8"/>
	<line class="st0" x1="34.1" y1="32.8" x2="34" y2="32.8"/>
	<line class="st0" x1="34" y1="32.8" x2="34" y2="32.8"/>
	<line class="st0" x1="34.6" y1="33.2" x2="34.6" y2="33.2"/>
	<line class="st0" x1="34.6" y1="33.2" x2="34.5" y2="33.2"/>
	<line class="st0" x1="34.6" y1="33.3" x2="35.1" y2="34.9"/>
	<line class="st0" x1="35.1" y1="34.9" x2="37.8" y2="43.8"/>
	<g>
		<g>
			<line class="st1" x1="26.7" y1="25.2" x2="26" y2="25.3"/>
			<line class="st31" x1="24.7" y1="25.6" x2="22.7" y2="26"/>
			<line class="st1" x1="22.1" y1="26.2" x2="21.4" y2="26.3"/>
		</g>
	</g>
	<line class="st0" x1="7.6" y1="13.3" x2="27.5" y2="22.7"/>
	<g>
		<line class="st32" x1="27.5" y1="22.7" x2="28.3" y2="23.1"/>
	</g>
	<line class="st0" x1="39.7" y1="26.6" x2="39.6" y2="26.6"/>
	<line class="st0" x1="40.3" y1="27.2" x2="40.2" y2="27.1"/>
	<line class="st0" x1="40.5" y1="27.6" x2="40.4" y2="27.4"/>
	<line class="st0" x1="40.4" y1="27.4" x2="40.3" y2="27.2"/>
	<line class="st0" x1="33.7" y1="32.8" x2="33.7" y2="32.8"/>
	<line class="st0" x1="33.7" y1="32.8" x2="33.6" y2="32.8"/>
	<line class="st0" x1="39.6" y1="26.6" x2="39.6" y2="26.5"/>
	<line class="st0" x1="40.2" y1="27.1" x2="40.1" y2="27"/>
	<line class="st0" x1="39.6" y1="26.5" x2="39.5" y2="26.5"/>
	<line class="st0" x1="40.1" y1="27" x2="40" y2="26.9"/>
	<line class="st0" x1="39.5" y1="26.5" x2="39.5" y2="26.5"/>
	<line class="st0" x1="39.5" y1="26.5" x2="39" y2="26.2"/>
	<line class="st0" x1="40" y1="26.9" x2="39.9" y2="26.8"/>
	<line class="st0" x1="39.9" y1="26.8" x2="39.8" y2="26.7"/>
	<line class="st0" x1="39.8" y1="26.7" x2="39.7" y2="26.6"/>
	<polyline class="st0" points="22.8,41.6 21.4,35.4 33.5,32.8 	"/>
</g>
</svg>
